<svg width="387" height="44" viewBox="0 0 387 44" fill="none" xmlns="http://www.w3.org/2000/svg">
<g opacity="0.8">
<path opacity="0.7" d="M159.296 10.9578C161.902 10.9141 164.42 11.8995 166.305 13.7005L171.563 8.44245C168.244 5.32538 163.848 3.61384 159.296 3.66662C155.897 3.66521 152.564 4.60924 149.671 6.39317C146.777 8.17709 144.437 10.7306 142.911 13.7683L149.037 18.5166C149.741 16.3418 151.11 14.4427 152.95 13.0868C154.791 11.7308 157.01 10.9862 159.296 10.9578Z" fill="black"/>
<path d="M142.911 13.7684C141.63 16.3231 140.962 19.1418 140.962 22C140.962 24.8582 141.63 27.677 142.911 30.2317L149.037 25.4834C148.27 23.2244 148.27 20.7757 149.037 18.5167L142.911 13.7684Z" fill="black"/>
<path opacity="0.5" d="M165.504 31.2914C164.086 32.2013 162.48 32.7754 160.807 32.97C159.134 33.1646 157.438 32.9745 155.85 32.4143C154.261 31.854 152.822 30.9384 151.641 29.7373C150.46 28.5361 149.57 27.0812 149.037 25.4834L142.913 30.2317C144.438 33.2688 146.778 35.822 149.671 37.6059C152.564 39.3898 155.895 40.3341 159.294 40.3334C163.757 40.4543 168.097 38.8652 171.427 35.8912L165.504 31.2914Z" fill="black"/>
<path opacity="0.25" d="M176.562 18.667H159.296V25.7583H169.163C168.959 26.8801 168.529 27.9487 167.9 28.8997C167.271 29.8507 166.456 30.6643 165.504 31.2913L171.429 35.893C173.233 34.1552 174.652 32.0577 175.594 29.7364C176.536 27.415 176.979 24.9217 176.896 22.418C176.896 21.1585 176.786 19.9045 176.562 18.667Z" fill="black"/>
</g>
<g opacity="0.7">
<path d="M215.328 10.094C216.51 11.0186 216.958 10.9533 219.191 10.8101L240.236 9.59903C240.684 9.59903 240.311 9.16937 240.161 9.09718L236.665 6.67388C235.999 6.17203 235.103 5.60602 233.392 5.74237L213.019 7.17458C212.273 7.23989 212.123 7.59852 212.422 7.88496L215.328 10.094ZM216.59 14.8031V36.0411C216.59 37.1812 217.182 37.6108 218.519 37.5387L241.649 36.2554C242.986 36.1832 243.142 35.4018 243.142 34.4714V13.3766C243.142 12.4451 242.768 11.9502 241.947 12.0223L217.78 13.3766C216.884 13.4488 216.592 13.8716 216.592 14.7974L216.59 14.8031ZM239.421 15.9363C239.57 16.5814 239.421 17.2196 238.749 17.2975L237.636 17.5129V33.1893C236.665 33.6912 235.776 33.9776 235.035 33.9776C233.841 33.9776 233.542 33.619 232.653 32.5511L225.362 21.5712V32.1936L227.67 32.6955C227.67 32.6955 227.67 33.9787 225.81 33.9787L220.678 34.2652C220.528 33.9787 220.678 33.2626 221.201 33.1251L222.538 32.7665V18.7251L220.679 18.5819C220.529 17.9368 220.903 17.0122 221.941 16.9411L227.446 16.5825L235.035 27.7056V17.8646L233.1 17.6492C232.951 16.8678 233.542 16.2949 234.289 16.2285L239.421 15.9363ZM211.309 5.24854L232.503 3.75102C235.103 3.53561 235.776 3.67883 237.411 4.81888L244.18 9.38363C245.293 10.165 245.667 10.3804 245.667 11.234V36.2565C245.667 37.8262 245.069 38.7509 242.991 38.8941L218.369 40.3206C216.814 40.3928 216.067 40.1774 215.245 39.1805L210.262 32.9739C209.373 31.8339 209 30.9803 209 29.9846V7.74403C209 6.46076 209.597 5.39291 211.308 5.24969L211.309 5.24854Z" fill="black"/>
</g>
<g opacity="0.7">
<path d="M353.608 26.8246C353.608 27.8482 353.202 28.8299 352.478 29.5537C351.754 30.2776 350.772 30.6842 349.749 30.6842C348.725 30.6842 347.743 30.2776 347.019 29.5537C346.296 28.8299 345.889 27.8482 345.889 26.8246C345.889 25.8009 346.296 24.8192 347.019 24.0954C347.743 23.3715 348.725 22.9649 349.749 22.9649H353.608V26.8246ZM355.538 26.8246C355.538 25.8009 355.945 24.8192 356.668 24.0954C357.392 23.3715 358.374 22.9649 359.398 22.9649C360.421 22.9649 361.403 23.3715 362.127 24.0954C362.851 24.8192 363.257 25.8009 363.257 26.8246V36.4737C363.257 37.4973 362.851 38.479 362.127 39.2029C361.403 39.9267 360.421 40.3333 359.398 40.3333C358.374 40.3333 357.392 39.9267 356.668 39.2029C355.945 38.479 355.538 37.4973 355.538 36.4737V26.8246ZM359.398 11.386C358.374 11.386 357.392 10.9793 356.668 10.2555C355.945 9.53167 355.538 8.54995 355.538 7.52631C355.538 6.50266 355.945 5.52095 356.668 4.79712C357.392 4.0733 358.374 3.66666 359.398 3.66666C360.421 3.66666 361.403 4.0733 362.127 4.79712C362.851 5.52095 363.257 6.50266 363.257 7.52631V11.386H359.398ZM359.398 13.3158C360.421 13.3158 361.403 13.7224 362.127 14.4462C362.851 15.1701 363.257 16.1518 363.257 17.1754C363.257 18.1991 362.851 19.1808 362.127 19.9046C361.403 20.6284 360.421 21.0351 359.398 21.0351H349.749C348.725 21.0351 347.743 20.6284 347.019 19.9046C346.296 19.1808 345.889 18.1991 345.889 17.1754C345.889 16.1518 346.296 15.1701 347.019 14.4462C347.743 13.7224 348.725 13.3158 349.749 13.3158H359.398ZM374.836 17.1754C374.836 16.1518 375.243 15.1701 375.967 14.4462C376.691 13.7224 377.672 13.3158 378.696 13.3158C379.72 13.3158 380.701 13.7224 381.425 14.4462C382.149 15.1701 382.556 16.1518 382.556 17.1754C382.556 18.1991 382.149 19.1808 381.425 19.9046C380.701 20.6284 379.72 21.0351 378.696 21.0351H374.836V17.1754ZM372.906 17.1754C372.906 18.1991 372.5 19.1808 371.776 19.9046C371.052 20.6284 370.07 21.0351 369.047 21.0351C368.023 21.0351 367.041 20.6284 366.318 19.9046C365.594 19.1808 365.187 18.1991 365.187 17.1754V7.52631C365.187 6.50266 365.594 5.52095 366.318 4.79712C367.041 4.0733 368.023 3.66666 369.047 3.66666C370.07 3.66666 371.052 4.0733 371.776 4.79712C372.5 5.52095 372.906 6.50266 372.906 7.52631V17.1754ZM369.047 32.614C370.07 32.614 371.052 33.0207 371.776 33.7445C372.5 34.4683 372.906 35.45 372.906 36.4737C372.906 37.4973 372.5 38.479 371.776 39.2029C371.052 39.9267 370.07 40.3333 369.047 40.3333C368.023 40.3333 367.041 39.9267 366.318 39.2029C365.594 38.479 365.187 37.4973 365.187 36.4737V32.614H369.047ZM369.047 30.6842C368.023 30.6842 367.041 30.2776 366.318 29.5537C365.594 28.8299 365.187 27.8482 365.187 26.8246C365.187 25.8009 365.594 24.8192 366.318 24.0954C367.041 23.3715 368.023 22.9649 369.047 22.9649H378.696C379.72 22.9649 380.701 23.3715 381.425 24.0954C382.149 24.8192 382.556 25.8009 382.556 26.8246C382.556 27.8482 382.149 28.8299 381.425 29.5537C380.701 30.2776 379.72 30.6842 378.696 30.6842H369.047Z" fill="black"/>
</g>
<g opacity="0.7">
<path d="M306.594 19.9833C300.728 16.5 290.919 16.1333 285.328 17.875C284.411 18.15 283.494 17.6 283.219 16.775C282.944 15.8583 283.494 14.9417 284.319 14.6667C290.828 12.7417 301.553 13.1083 308.336 17.1417C309.161 17.6 309.436 18.7 308.978 19.525C308.519 20.1667 307.419 20.4417 306.594 19.9833ZM306.411 25.1167C305.953 25.7583 305.128 26.0333 304.486 25.575C299.536 22.55 292.019 21.6333 286.244 23.4667C285.511 23.65 284.686 23.2833 284.503 22.55C284.319 21.8167 284.686 20.9917 285.419 20.8083C292.111 18.7917 300.361 19.8 306.044 23.2833C306.594 23.5583 306.869 24.475 306.411 25.1167ZM304.211 30.1583C303.844 30.7083 303.203 30.8917 302.653 30.525C298.344 27.8667 292.936 27.3167 286.519 28.7833C285.878 28.9667 285.328 28.5083 285.144 27.9583C284.961 27.3167 285.419 26.7667 285.969 26.5833C292.936 25.025 298.986 25.6667 303.753 28.6C304.394 28.875 304.486 29.6083 304.211 30.1583ZM295.778 3.66666C293.37 3.66666 290.986 4.14086 288.762 5.0622C286.538 5.98353 284.517 7.33396 282.814 9.03637C279.376 12.4745 277.444 17.1377 277.444 22C277.444 26.8623 279.376 31.5254 282.814 34.9636C284.517 36.666 286.538 38.0164 288.762 38.9378C290.986 39.8591 293.37 40.3333 295.778 40.3333C300.64 40.3333 305.303 38.4018 308.741 34.9636C312.18 31.5254 314.111 26.8623 314.111 22C314.111 19.5924 313.637 17.2084 312.716 14.9841C311.794 12.7598 310.444 10.7388 308.741 9.03637C307.039 7.33396 305.018 5.98353 302.794 5.0622C300.569 4.14086 298.185 3.66666 295.778 3.66666Z" fill="black"/>
</g>
<g opacity="0.7">
<path d="M39.1111 32.541C39.1111 33.8026 38.418 36.2321 36.8607 37.5666C36.5492 37.8096 36.2378 37.6725 36.3747 37.3185C36.8282 36.1939 37.8653 33.5926 37.3792 32.9939C37.0353 32.5392 35.6148 32.5739 34.4032 32.6781C33.8504 32.7492 33.3644 32.7822 32.9879 32.8603C32.6388 32.888 32.5686 32.5774 32.9178 32.3345C33.3724 32.009 33.8749 31.7583 34.4066 31.5917C36.3747 30.9947 38.649 31.354 38.9759 31.7357C39.0375 31.8086 39.1111 32.0151 39.1111 32.541ZM35.8219 34.7848C35.3706 35.1348 34.8966 35.4536 34.4032 35.7393C30.7717 37.9519 26.0673 39.1111 21.9823 39.1111C15.4056 39.1111 9.52373 36.6521 5.06055 32.5375C4.67721 32.2217 4.99381 31.7635 5.44218 32.0117C10.251 34.8577 16.2031 36.5792 22.3639 36.5792C26.2418 36.5792 30.4209 35.8434 34.4032 34.2607C34.6822 34.1549 34.9936 34.0108 35.2657 33.9102C35.8938 33.6238 36.4466 34.3301 35.8219 34.7848ZM25.2629 15.6436C25.2629 13.837 25.3348 12.7732 24.7444 11.8604C24.2207 11.109 23.3188 10.6578 22.0593 10.729C20.6937 10.8053 19.227 11.7129 18.854 13.3772C18.7804 13.7589 18.5613 14.1338 18.1061 14.2153L13.939 13.6774C13.6412 13.608 13.1877 13.3772 13.3366 12.7732C14.2316 7.99921 18.255 6.33498 22.061 6.11111H22.9543C25.0422 6.11111 27.7256 6.71676 29.442 8.30464C31.5247 10.276 31.3023 12.9242 31.3023 15.8015V22.6163C31.3023 24.6606 32.1203 25.5665 32.9417 26.632C33.1642 27.012 33.2412 27.4598 32.8664 27.7687C31.7883 28.7434 30.6946 29.7003 29.5858 30.639C29.2863 30.8698 28.7489 30.8941 28.5419 30.7171C27.2241 29.5978 26.9024 28.9765 26.0861 27.8398C24.6657 29.3513 23.4729 30.1861 22.0542 30.639C21.0565 30.8957 20.0304 31.0217 19.0011 31.0138C15.4244 31.0138 12.5922 28.7526 12.5922 24.2806C12.5922 20.7248 14.4575 18.3074 17.2128 17.1638C19.968 16.0184 23.9726 15.654 25.2629 15.647M24.4466 24.6571C25.3365 23.1439 25.2629 21.9048 25.2629 19.1299C24.1471 19.1299 23.0279 19.208 22.061 19.4388C20.2727 19.9647 18.8522 21.1048 18.8522 23.5257C18.8522 25.4172 19.8243 26.7049 21.4638 26.7049C21.6897 26.7049 21.8882 26.6771 22.0593 26.6268C23.2059 26.304 23.9212 25.7209 24.4466 24.6571Z" fill="black"/>
</g>
<g opacity="0.7">
<path d="M101.033 38.8622C98.9792 40.7972 96.7374 40.4916 94.5794 39.5751C92.2956 38.6382 90.2004 38.5974 87.791 39.5751C84.7739 40.8379 83.1816 40.4713 81.3797 38.8622C71.1552 28.6172 72.6638 13.0155 84.2711 12.4452C87.0996 12.5878 89.069 13.9524 90.7242 14.0746C93.1965 13.5858 95.5641 12.1804 98.204 12.3637C101.368 12.6081 103.756 13.8302 105.328 16.0299C98.7907 19.8387 100.341 28.2099 106.333 30.5522C105.139 33.6073 103.589 36.6421 101.012 38.8826L101.033 38.8622ZM90.5147 12.323C90.2004 7.78095 93.9927 4.03328 98.3507 3.66666C98.9583 8.92155 93.448 12.8322 90.5147 12.323Z" fill="black"/>
</g>
</svg>
