<svg width="47" height="48" viewBox="0 0 47 48" fill="none" xmlns="http://www.w3.org/2000/svg">
<path d="M0.00778198 29.2174C0.00778198 26.8879 0.466944 24.5811 1.35911 22.429C2.25128 20.2767 3.55891 18.3212 5.2074 16.6739C6.85589 15.0267 8.81286 13.72 10.9667 12.8285C13.1206 11.9372 15.4291 11.4783 17.7604 11.4783V29.2174H0.00778198Z" fill="#00A4F4"/>
<path d="M0.00778198 29.2174C0.00778198 31.684 0.466944 34.1264 1.35911 36.4053C2.25128 38.6841 3.55891 40.7546 5.2074 42.4987C6.85589 44.2428 8.81286 45.6264 10.9667 46.5703C13.1206 47.5142 15.4291 48 17.7604 48V29.2174H0.00778198Z" fill="#2CBEFF"/>
<path d="M35.513 29.2174C35.513 31.684 35.0542 34.1264 34.1621 36.4053C33.2699 38.6841 31.9623 40.7546 30.3135 42.4987C28.665 44.2428 26.708 45.6264 24.554 46.5703C22.4003 47.5142 20.0917 48 17.7604 48V29.2174H35.513Z" fill="#75D4FF"/>
<path d="M47 13.5652C47 21.0571 40.9218 27.1304 33.4244 27.1304H19.8489V13.5652C19.8489 6.07338 25.9269 0 33.4244 0C40.9218 0 47 6.07338 47 13.5652Z" fill="#0084D4"/>
</svg>
